<?xml version="1.0" encoding="utf-8"?>
<!-- Generator: Adobe Illustrator 24.3.0, SVG Export Plug-In . SVG Version: 6.00 Build 0)  -->
<svg version="1.1" id="레이어_1" xmlns="http://www.w3.org/2000/svg" xmlns:xlink="http://www.w3.org/1999/xlink" x="0px"
	 y="0px" viewBox="0 0 250 100" style="enable-background:new 0 0 250 100;" xml:space="preserve">
<style type="text/css">
	.st0{fill:url(#SVGID_1_);}
	.st1{fill:url(#SVGID_2_);}
	.st2{fill:url(#SVGID_3_);}
	.st3{fill:#31FFA1;}
	.st4{fill:url(#SVGID_4_);}
	.st5{fill:#3364FF;}
	.st6{fill:url(#SVGID_5_);}
	.st7{fill:url(#SVGID_6_);}
	.st8{fill:url(#SVGID_7_);}
	.st9{fill:url(#SVGID_8_);}
	.st10{fill:url(#SVGID_9_);}
	.st11{fill:url(#SVGID_10_);}
	.st12{fill:url(#SVGID_11_);}
	.st13{fill:url(#SVGID_12_);}
	.st14{fill:url(#SVGID_13_);}
	.st15{fill:#27A2CC;}
</style>
<g>
	<linearGradient id="SVGID_1_" gradientUnits="userSpaceOnUse" x1="160.0866" y1="39.6276" x2="144.0989" y2="37.2154">
		<stop  offset="0" style="stop-color:#1EA6FE"/>
		<stop  offset="1" style="stop-color:#A2FECD"/>
	</linearGradient>
	<path class="st0" d="M153.31,42.56c0.14,0,0.28,0,0.42,0c0.54,0.02,1.04-0.09,1.51-0.34c0.49-0.16,0.91-0.43,1.26-0.81
		c0.38-0.36,0.65-0.78,0.81-1.26c0.25-0.47,0.36-0.97,0.34-1.51c-0.05-0.35-0.09-0.7-0.14-1.04c-0.19-0.66-0.52-1.24-1.01-1.73
		c-0.26-0.2-0.53-0.41-0.79-0.61c-0.61-0.35-1.27-0.53-1.98-0.54c-0.14,0-0.28,0-0.42,0c-0.54-0.02-1.04,0.09-1.51,0.34
		c-0.49,0.16-0.91,0.43-1.26,0.81c-0.38,0.36-0.65,0.78-0.81,1.26c-0.25,0.47-0.36,0.97-0.34,1.51c0.05,0.35,0.09,0.7,0.14,1.04
		c0.19,0.66,0.52,1.24,1.01,1.73c0.26,0.2,0.53,0.41,0.79,0.61C151.94,42.38,152.6,42.56,153.31,42.56L153.31,42.56z"/>
</g>
<g>
	<linearGradient id="SVGID_2_" gradientUnits="userSpaceOnUse" x1="154.5039" y1="37.7435" x2="209.7377" y2="37.7435">
		<stop  offset="0" style="stop-color:#3364FF"/>
		<stop  offset="0.3635" style="stop-color:#3364FF"/>
		<stop  offset="0.4825" style="stop-color:#3364FF"/>
		<stop  offset="0.5614" style="stop-color:#2B7DFF"/>
		<stop  offset="0.6541" style="stop-color:#2494FE"/>
		<stop  offset="0.7422" style="stop-color:#1FA1FE"/>
		<stop  offset="0.8203" style="stop-color:#1EA6FE"/>
	</linearGradient>
	<path class="st1" d="M188.85,25.14c-0.13,0.31-0.26,0.62-0.4,0.94c1.25-2.95,2.53-5.89,3.87-8.8c0.66-1.44,1.34-2.88,2.03-4.32
		c0.57-1.2,1.13-2.4,1.94-3.46c-0.2,0.26-0.41,0.53-0.61,0.79c0.33-0.42,0.69-0.8,1.12-1.13c-0.26,0.2-0.53,0.41-0.79,0.61
		c0.25-0.19,0.52-0.34,0.81-0.47c-0.31,0.13-0.62,0.26-0.94,0.4c0.29-0.12,0.59-0.2,0.91-0.24c-0.35,0.05-0.7,0.09-1.04,0.14
		c0.25-0.02,0.49-0.02,0.74,0c-0.35-0.05-0.7-0.09-1.04-0.14c0.29,0.04,0.56,0.12,0.83,0.23c-0.31-0.13-0.62-0.26-0.94-0.4
		c0.31,0.14,0.59,0.3,0.86,0.51c-0.26-0.2-0.53-0.41-0.79-0.61c0.3,0.24,0.57,0.51,0.81,0.82c-0.2-0.26-0.41-0.53-0.61-0.79
		c0.26,0.35,0.47,0.71,0.65,1.11c-0.13-0.31-0.26-0.62-0.4-0.94c0.19,0.47,0.31,0.96,0.39,1.46c-0.05-0.35-0.09-0.7-0.14-1.04
		c0.13,0.98,0.07,1.95-0.05,2.92c0.05-0.35,0.09-0.7,0.14-1.04c-0.76,5.56-2.46,11.05-4.63,16.21c0.13-0.31,0.26-0.62,0.4-0.94
		c-2.11,4.99-4.75,9.75-7.83,14.21c-0.88,1.27-1.79,2.51-2.73,3.73c0.2-0.26,0.41-0.53,0.61-0.79c-4.15,5.35-8.9,10.23-14.05,14.63
		c-1.44,1.23-2.92,2.43-4.42,3.59c0.26-0.2,0.53-0.41,0.79-0.61c-1.18,0.91-6.67,4.79-7.88,5.65c-0.85,0.61-1.52,1.3-1.8,2.34
		c-0.26,0.94-0.14,2.19,0.4,3.02c0.54,0.84,0.45,0.62,1.45,0.85c0.97,0.22,1.5,0,2.62,0.19l0.93-0.19
		c5.04-1.87,13.99-9.53,18.2-13.59c4.22-4.06,8.05-8.49,11.49-13.22c3.29-4.53,6.12-9.39,8.41-14.5c2.33-5.21,4.23-10.84,5.33-16.76
		c0.32-1.73,0.67-3.54,0.52-5.31c-0.08-0.98-0.2-1.99-0.57-2.91c-0.47-1.17-0.96-2.02-1.78-2.99c-0.54-0.65-1.27-1.22-2-1.62
		c-1.07-0.59-2.12-0.86-3.33-0.94c-0.57-0.04-1.16,0.07-1.72,0.17c-0.27,0.05-0.53,0.12-0.79,0.23c-1.12,0.44-2.01,0.96-2.91,1.79
		c-1.04,0.95-1.86,2.22-2.51,3.47c-0.66,1.27-1.26,2.58-1.87,3.88c-1.29,2.75-2.53,5.52-3.74,8.31"/>
</g>
<g>
	
		<linearGradient id="SVGID_3_" gradientUnits="userSpaceOnUse" x1="108.5277" y1="73.7519" x2="138.475" y2="73.7519" gradientTransform="matrix(0.9834 -0.1815 0.1815 0.9834 49.0867 11.0234)">
		<stop  offset="0.1438" style="stop-color:#3364FF"/>
		<stop  offset="0.2978" style="stop-color:#2887FE"/>
		<stop  offset="0.4276" style="stop-color:#219EFE"/>
		<stop  offset="0.51" style="stop-color:#1EA6FE"/>
		<stop  offset="0.7" style="stop-color:#258FFE"/>
		<stop  offset="1" style="stop-color:#3364FF"/>
	</linearGradient>
	<path class="st2" d="M195.34,52.55c-1.97,1.75-3.95,3.5-6.15,4.96c0.28-0.19,0.57-0.37,0.85-0.56c-1.5,0.98-3.09,1.82-4.8,2.38
		c0.33-0.11,0.67-0.22,1-0.33c-1.96,0.63-4,0.93-6.02,1.27c-2.04,0.35-4.09,0.7-6.13,1.05c-1.16,0.2-2.32,0.4-3.48,0.59
		c-0.53,0.08-1.01,0.28-1.43,0.61c-0.45,0.24-0.81,0.59-1.09,1.03c-0.31,0.42-0.5,0.88-0.57,1.39c-0.16,0.5-0.18,1.02-0.06,1.55
		c0.23,0.99,0.75,1.96,1.63,2.52c0.89,0.56,1.88,0.81,2.94,0.63l0,0c3.98-0.68,7.96-1.33,11.93-2.04c2.21-0.4,4.4-0.96,6.45-1.88
		c1.91-0.86,3.69-2.04,5.36-3.28L195.34,52.55z"/>
</g>
<g>
	<path class="st3" d="M196.51,60.95c0.96,0.51,1.97,0.94,3,1.28c0.74,0.24,1.49,0.42,2.26,0.54c1.09,0.16,2.18,0.31,3.28,0.29
		c1.1-0.01,2.2-0.16,3.28-0.35c0.75-0.14,1.5-0.33,2.21-0.6c0.93-0.35,1.87-0.75,2.71-1.3c0.54-0.36,1.06-0.76,1.56-1.18
		c0.27-0.22,0.52-0.46,0.75-0.71c0.43-0.47,0.82-0.98,1.17-1.51c0.36-0.54,0.59-1.14,0.83-1.74c0.12-0.29,0.22-0.59,0.27-0.89
		c0.12-0.63,0.23-1.3,0.2-1.96c-0.06-1.35-0.4-2.59-1.06-3.77c-0.31-0.56-0.74-1.07-1.15-1.56c-0.23-0.27-0.48-0.51-0.76-0.72
		c-0.5-0.4-1.01-0.82-1.58-1.13c-0.62-0.34-1.29-0.61-1.96-0.83c-0.37-0.12-0.76-0.22-1.14-0.28c-0.72-0.12-1.45-0.23-2.18-0.26
		c-1.09-0.05-2.16,0.1-3.24,0.25c-1.71,0.24-3.29,0.81-4.86,1.52c-1.54,0.69-2.93,1.68-4.21,2.78c-0.52,0.45-1.01,0.94-1.46,1.47
		c-0.64,0.76-1.27,1.57-1.78,2.42c-0.54,0.89-0.95,1.87-1.32,2.84c-0.26,0.68-0.46,1.39-0.6,2.1c-0.2,1.03-0.34,2.09-0.37,3.14
		c-0.03,1.06,0.11,2.1,0.26,3.15c0.1,0.72,0.27,1.43,0.5,2.12c0.33,0.98,0.74,1.96,1.25,2.86c0.48,0.86,1.09,1.64,1.72,2.4
		c0.42,0.51,0.88,0.98,1.38,1.41c1.24,1.07,2.59,2.03,4.09,2.69c1.53,0.68,3.06,1.25,4.72,1.5c1.67,0.25,3.32,0.41,5,0.21
		c1.78-0.21,3.49-0.53,5.16-1.18c1.66-0.64,3.27-1.4,4.75-2.38c1.48-0.98,2.89-2.11,4.16-3.35c0.52-0.51,1.01-1.03,1.48-1.58
		c0.38-0.36,0.65-0.78,0.81-1.26c0.25-0.47,0.36-0.97,0.34-1.51c0.02-0.54-0.09-1.04-0.34-1.51c-0.16-0.49-0.43-0.91-0.81-1.26
		c-0.75-0.69-1.73-1.2-2.77-1.15c-0.99,0.04-2.1,0.37-2.77,1.15c-1.07,1.25-2.27,2.39-3.57,3.4c0.26-0.2,0.53-0.41,0.79-0.61
		c-1.4,1.08-2.92,1.99-4.54,2.68c0.31-0.13,0.62-0.26,0.94-0.4c-1.41,0.6-2.89,1.02-4.41,1.23c0.35-0.05,0.7-0.09,1.04-0.14
		c-1.32,0.18-2.66,0.17-3.98,0c0.35,0.05,0.7,0.09,1.04,0.14c-1.29-0.18-2.54-0.52-3.74-1.02c0.31,0.13,0.62,0.26,0.94,0.4
		c-1.08-0.46-2.1-1.04-3.03-1.76c0.26,0.2,0.53,0.41,0.79,0.61c-0.8-0.62-1.51-1.33-2.13-2.12c0.2,0.26,0.41,0.53,0.61,0.79
		c-0.58-0.75-1.06-1.57-1.43-2.44c0.13,0.31,0.26,0.62,0.4,0.94c-0.41-0.98-0.69-2-0.83-3.06c0.05,0.35,0.09,0.7,0.14,1.04
		c-0.15-1.13-0.14-2.27,0.01-3.4c-0.05,0.35-0.09,0.7-0.14,1.04c0.15-1.11,0.45-2.18,0.88-3.21c-0.13,0.31-0.26,0.62-0.4,0.94
		c0.41-0.96,0.94-1.85,1.57-2.68c-0.2,0.26-0.41,0.53-0.61,0.79c0.69-0.89,1.49-1.69,2.38-2.38c-0.26,0.2-0.53,0.41-0.79,0.61
		c0.97-0.75,2.03-1.36,3.16-1.84c-0.31,0.13-0.62,0.26-0.94,0.4c1.15-0.48,2.36-0.82,3.6-0.98c-0.35,0.05-0.7,0.09-1.04,0.14
		c1.01-0.13,2.04-0.16,3.05-0.03c-0.35-0.05-0.7-0.09-1.04-0.14c0.67,0.09,1.33,0.26,1.96,0.52c-0.31-0.13-0.62-0.26-0.94-0.4
		c0.45,0.2,0.86,0.44,1.25,0.73c-0.26-0.2-0.53-0.41-0.79-0.61c0.35,0.27,0.66,0.58,0.94,0.93c-0.2-0.26-0.41-0.53-0.61-0.79
		c0.24,0.31,0.44,0.65,0.6,1.01c-0.13-0.31-0.26-0.62-0.4-0.94c0.13,0.32,0.23,0.65,0.28,0.99c-0.05-0.35-0.09-0.7-0.14-1.04
		c0.05,0.35,0.05,0.71,0.01,1.06c0.05-0.35,0.09-0.7,0.14-1.04c-0.05,0.39-0.16,0.76-0.31,1.12c0.13-0.31,0.26-0.62,0.4-0.94
		c-0.18,0.41-0.41,0.78-0.67,1.13c0.2-0.26,0.41-0.53,0.61-0.79c-0.38,0.49-0.83,0.92-1.32,1.3c0.26-0.2,0.53-0.41,0.79-0.61
		c-0.6,0.45-1.25,0.83-1.94,1.13c0.31-0.13,0.62-0.26,0.94-0.4c-1.01,0.43-2.1,0.69-3.19,0.84c0.35-0.05,0.7-0.09,1.04-0.14
		c-1.2,0.16-2.41,0.15-3.62,0c0.35,0.05,0.7,0.09,1.04,0.14c-1.2-0.16-2.37-0.48-3.49-0.95c0.31,0.13,0.62,0.26,0.94,0.4
		c-0.36-0.15-0.72-0.32-1.07-0.51c-0.92-0.49-2-0.68-3.02-0.4c-0.51,0.12-0.96,0.36-1.33,0.7c-0.43,0.28-0.76,0.64-1.01,1.1
		c-0.48,0.91-0.72,2.01-0.4,3.02C195.02,59.56,195.61,60.47,196.51,60.95L196.51,60.95z"/>
</g>
<g>
	<linearGradient id="SVGID_4_" gradientUnits="userSpaceOnUse" x1="194.443" y1="53.6551" x2="218.0501" y2="53.6551">
		<stop  offset="0.1843" style="stop-color:#3364FF"/>
		<stop  offset="0.2605" style="stop-color:#2E73FF"/>
		<stop  offset="0.411" style="stop-color:#2789FE"/>
		<stop  offset="0.574" style="stop-color:#2299FE"/>
		<stop  offset="0.7567" style="stop-color:#1FA3FE"/>
		<stop  offset="1" style="stop-color:#1EA6FE"/>
	</linearGradient>
	<path class="st4" d="M201.23,54.5c0.97-0.75,2.03-1.36,3.16-1.84c-0.31,0.13-0.62,0.26-0.94,0.4c1.15-0.48,2.36-0.82,3.6-0.98
		c-0.35,0.05-0.7,0.09-1.04,0.14c1.01-0.13,2.04-0.16,3.05-0.03c-0.35-0.05-0.7-0.09-1.04-0.14c0.67,0.09,1.33,0.26,1.96,0.52
		c-0.31-0.13-0.62-0.26-0.94-0.4c0.45,0.2,0.86,0.44,1.25,0.73c-0.26-0.2-0.53-0.41-0.79-0.61c0.35,0.27,0.66,0.58,0.94,0.93
		c-0.2-0.26-0.41-0.53-0.61-0.79c0.24,0.31,0.44,0.65,0.6,1.01c-0.13-0.31-0.26-0.62-0.4-0.94c0.13,0.32,0.23,0.65,0.28,0.99
		c-0.05-0.35-0.09-0.7-0.14-1.04c0.05,0.35,0.05,0.71,0.01,1.06c0.05-0.35,0.09-0.7,0.14-1.04c-0.05,0.39-0.16,0.76-0.31,1.12
		c0.13-0.31,0.26-0.62,0.4-0.94c-0.18,0.41-0.41,0.78-0.67,1.13c0.2-0.26,0.41-0.53,0.61-0.79c-0.38,0.49-0.83,0.92-1.32,1.3
		c0.26-0.2,0.53-0.41,0.79-0.61c-0.6,0.45-1.25,0.83-1.94,1.13c0.31-0.13,0.62-0.26,0.94-0.4c-1.01,0.43-2.1,0.69-3.19,0.84
		c0.35-0.05,0.7-0.09,1.04-0.14c-1.2,0.16-2.41,0.15-3.62,0c0.35,0.05,0.7,0.09,1.04,0.14c-1.2-0.16-2.37-0.48-3.49-0.95
		c0.31,0.13,0.62,0.26,0.94,0.4c-0.36-0.15-0.72-0.32-1.07-0.51c-0.92-0.49-2-0.68-3.02-0.4c-0.51,0.12-0.96,0.36-1.33,0.7
		c-0.43,0.28-0.76,0.64-1.01,1.1c-0.48,0.91-0.72,2.01-0.4,3.02c0.31,0.95,0.9,1.86,1.8,2.34l0,0c0.96,0.51,1.97,0.94,3,1.28
		c0.74,0.24,1.49,0.42,2.26,0.54c1.09,0.16,2.18,0.31,3.28,0.29c1.1-0.01,2.2-0.16,3.28-0.35c0.75-0.14,1.5-0.33,2.21-0.6
		c0.93-0.35,1.87-0.75,2.71-1.3c0.54-0.36,1.06-0.76,1.56-1.18c0.27-0.22,0.52-0.46,0.75-0.71c0.43-0.47,0.82-0.98,1.17-1.51
		c0.36-0.54,0.59-1.14,0.83-1.74c0.12-0.29,0.22-0.59,0.27-0.89c0.12-0.63,0.23-1.3,0.2-1.96c-0.06-1.35-0.4-2.59-1.06-3.77
		c-0.31-0.56-0.74-1.07-1.15-1.56c-0.23-0.27-0.48-0.51-0.76-0.72c-0.5-0.4-1.01-0.82-1.58-1.13c-0.62-0.34-1.29-0.61-1.96-0.83
		c-0.37-0.12-0.76-0.22-1.14-0.28c-0.72-0.12-1.45-0.23-2.18-0.26c-1.09-0.05-2.16,0.1-3.24,0.25c-1.71,0.24-3.29,0.81-4.86,1.52
		c-1.54,0.69-2.93,1.68-4.21,2.78c-0.52,0.45-1.01,0.94-1.46,1.47L201.23,54.5z"/>
	<path class="st5" d="M199.08,57.21"/>
	<path class="st5" d="M198.19,61.74"/>
</g>
<g>
	<path class="st5" d="M208.86,52.16"/>
	<linearGradient id="SVGID_5_" gradientUnits="userSpaceOnUse" x1="183.0525" y1="62.26" x2="224.1468" y2="59.7099">
		<stop  offset="0.0741" style="stop-color:#A2FECD"/>
		<stop  offset="0.1067" style="stop-color:#96F6D1"/>
		<stop  offset="0.2953" style="stop-color:#56CBE9"/>
		<stop  offset="0.4327" style="stop-color:#2DB0F8"/>
		<stop  offset="0.5037" style="stop-color:#1EA6FE"/>
		<stop  offset="0.6169" style="stop-color:#219CFE"/>
		<stop  offset="0.8097" style="stop-color:#2A81FF"/>
		<stop  offset="0.977" style="stop-color:#3364FF"/>
	</linearGradient>
	<path class="st6" d="M207.84,52.04c0.35,0.05,0.7,0.09,1.04,0.14c-1.01-0.13-2.04-0.1-3.05,0.03c0.35-0.05,0.7-0.09,1.04-0.14
		c-1.24,0.17-2.45,0.5-3.6,0.98c0.31-0.13,0.62-0.26,0.94-0.4c-1.13,0.48-2.19,1.1-3.16,1.84c0.26-0.2,0.53-0.41,0.79-0.61
		c-0.89,0.69-1.69,1.49-2.38,2.38c0.2-0.26,0.41-0.53,0.61-0.79c-0.63,0.83-1.16,1.72-1.57,2.68c0.13-0.31,0.26-0.62,0.4-0.94
		c-0.43,1.03-0.72,2.11-0.88,3.21c0.05-0.35,0.09-0.7,0.14-1.04c-0.15,1.13-0.15,2.27-0.01,3.4c-0.05-0.35-0.09-0.7-0.14-1.04
		c0.14,1.05,0.42,2.08,0.83,3.06c-0.13-0.31-0.26-0.62-0.4-0.94c0.37,0.87,0.85,1.69,1.43,2.44c-0.2-0.26-0.41-0.53-0.61-0.79
		c0.62,0.8,1.34,1.5,2.13,2.12c-0.26-0.2-0.53-0.41-0.79-0.61c0.93,0.71,1.95,1.3,3.03,1.76c-0.31-0.13-0.62-0.26-0.94-0.4
		c1.2,0.5,2.45,0.84,3.74,1.02c-0.35-0.05-0.7-0.09-1.04-0.14c1.32,0.18,2.66,0.18,3.98,0c-0.35,0.05-0.7,0.09-1.04,0.14
		c1.52-0.21,3-0.63,4.41-1.23c-0.31,0.13-0.62,0.26-0.94,0.4c1.62-0.69,3.14-1.61,4.54-2.68c-0.26,0.2-0.53,0.41-0.79,0.61
		c1.3-1.01,2.5-2.15,3.57-3.4c0.67-0.78,1.78-1.1,2.77-1.15c1.04-0.05,2.03,0.46,2.77,1.15c0.38,0.36,0.65,0.78,0.81,1.26
		c0.25,0.47,0.36,0.97,0.34,1.51c0.02,0.54-0.09,1.04-0.34,1.51c-0.16,0.49-0.43,0.91-0.81,1.26c-0.47,0.55-0.96,1.08-1.48,1.58
		c-1.27,1.24-2.68,2.37-4.16,3.35c-1.49,0.99-3.09,1.74-4.75,2.38c-1.67,0.65-3.39,0.97-5.16,1.18c-1.68,0.2-3.33,0.05-5-0.21
		c-1.66-0.25-3.19-0.82-4.72-1.5c-1.5-0.67-2.85-1.62-4.09-2.69c-0.5-0.43-0.96-0.9-1.38-1.41c-0.62-0.76-1.23-1.54-1.72-2.4
		c-0.51-0.9-0.92-1.88-1.25-2.86c-0.23-0.69-0.4-1.4-0.5-2.12c-0.15-1.05-0.29-2.09-0.26-3.15c0.03-1.05,0.17-2.11,0.37-3.14
		c0.14-0.72,0.34-1.42,0.6-2.1c0.37-0.97,0.78-1.94,1.32-2.84c0.51-0.86,1.14-1.66,1.78-2.42c0.45-0.53,0.94-1.02,1.46-1.47
		c1.28-1.1,2.66-2.09,4.21-2.78c1.57-0.71,3.15-1.28,4.86-1.52c1.08-0.15,2.15-0.29,3.24-0.25l1.29,8.03"/>
</g>
<g>
	<linearGradient id="SVGID_6_" gradientUnits="userSpaceOnUse" x1="175.0884" y1="11.6311" x2="212.344" y2="17.8783">
		<stop  offset="0.053" style="stop-color:#A2FECD"/>
		<stop  offset="0.272" style="stop-color:#49C3EE"/>
		<stop  offset="0.3889" style="stop-color:#1EA6FE"/>
	</linearGradient>
	<path class="st7" d="M200.75,25.56c1.87-5.79,1.66-4.25,2.71-10.05c0.31-1.73,0.67-3.54,0.52-5.31c-0.08-0.98-0.2-1.99-0.57-2.91
		c-0.47-1.17-0.96-2.02-1.78-2.99c-0.54-0.65-1.27-1.22-2-1.62c-1.07-0.59-2.12-0.86-3.33-0.94c-0.57-0.04-1.16,0.07-1.72,0.17
		c-0.27,0.05-0.53,0.12-0.79,0.23c-1.12,0.44-2.01,0.96-2.91,1.79c-1.04,0.95-1.86,2.22-2.51,3.47c-0.66,1.27-1.26,2.58-1.87,3.88
		c-1.29,2.75-2.53,5.52-3.74,8.31l6.09,5.56c-0.13,0.31-0.26,0.62-0.4,0.94c1.25-2.95,2.53-5.89,3.87-8.8
		c0.66-1.44,1.34-2.88,2.03-4.32c0.57-1.2,1.13-2.4,1.94-3.46c-0.2,0.26-0.41,0.53-0.61,0.79c0.33-0.42,0.69-0.8,1.12-1.13
		c-0.26,0.2-0.53,0.41-0.79,0.61c0.25-0.19,0.52-0.34,0.81-0.47c-0.31,0.13-0.62,0.26-0.94,0.4c0.29-0.12,0.59-0.2,0.91-0.24
		c-0.35,0.05-0.7,0.09-1.04,0.14c0.25-0.02,0.49-0.02,0.74,0c-0.35-0.05-0.7-0.09-1.04-0.14c0.29,0.04,0.56,0.12,0.83,0.23
		c-0.31-0.13-0.62-0.26-0.94-0.4c0.31,0.14,0.59,0.3,0.86,0.51c-0.26-0.2-0.53-0.41-0.79-0.61c0.3,0.24,0.57,0.51,0.81,0.82
		c-0.2-0.26-0.41-0.53-0.61-0.79c0.26,0.35,0.47,0.71,0.65,1.11c-0.13-0.31-0.26-0.62-0.4-0.94c0.19,0.47,0.31,0.96,0.39,1.46
		c-0.05-0.35-0.09-0.7-0.14-1.04c0.13,0.98,0.07,1.95-0.05,2.92c0.05-0.35,0.09-0.7,0.14-1.04c-0.76,5.56-2.46,11.05-4.63,16.21
		c0.13-0.31,2.88-7.91,3.01-8.22L200.75,25.56z"/>
</g>
<g>
	<linearGradient id="SVGID_7_" gradientUnits="userSpaceOnUse" x1="181.0085" y1="45.6406" x2="181.0085" y2="45.6406">
		<stop  offset="0.1546" style="stop-color:#A2FECD"/>
		<stop  offset="-nan(ind)" style="stop-color:#1EA6FE"/>
	</linearGradient>
	<path class="st8" d="M181.01,45.64"/>
	<linearGradient id="SVGID_8_" gradientUnits="userSpaceOnUse" x1="160.8941" y1="51.2874" x2="192.6875" y2="61.1971">
		<stop  offset="0.0632" style="stop-color:#A2FECD"/>
		<stop  offset="0.4522" style="stop-color:#2EB0F8"/>
		<stop  offset="0.5035" style="stop-color:#1EA6FE"/>
	</linearGradient>
	<path class="st9" d="M186.13,12.02c-1.29,2.75-2.53,5.52-3.74,8.31c-2.51,5.81-4.87,11.69-7.09,17.62
		c-2.12,5.67-4.11,11.39-6.02,17.13c-1.91,5.75-3.73,11.53-5.5,17.33c-1.77,5.8-3.49,11.61-5.21,17.42
		c-0.42,1.42-0.84,2.84-1.25,4.26c-0.28,0.97-0.11,2.16,0.4,3.02c0.48,0.81,1.41,1.59,2.34,1.8c2.1,0.48,4.21-0.63,4.83-2.74
		c2.73-9.27,5.45-18.54,8.34-27.76c2.88-9.21,5.93-18.38,9.29-27.44c1.88-5.07,3.86-10.1,5.96-15.08c-0.13,0.31-0.26,0.62-0.4,0.94
		c1.25-2.95,2.53-5.89,3.87-8.8c0.66-1.44,1.34-2.88,2.03-4.32L186.13,12.02z"/>
	<linearGradient id="SVGID_9_" gradientUnits="userSpaceOnUse" x1="177.8595" y1="60.7282" x2="177.8595" y2="60.7282">
		<stop  offset="0.1546" style="stop-color:#A2FECD"/>
		<stop  offset="0.4992" style="stop-color:#1EA6FE"/>
	</linearGradient>
	<path class="st10" d="M177.86,60.73"/>
</g>
<g>
	<linearGradient id="SVGID_10_" gradientUnits="userSpaceOnUse" x1="145.1813" y1="22.5313" x2="103.677" y2="35.0494">
		<stop  offset="0.0248" style="stop-color:#1EA6FE"/>
		<stop  offset="0.1016" style="stop-color:#229AFE"/>
		<stop  offset="0.2392" style="stop-color:#2C7BFF"/>
		<stop  offset="0.3264" style="stop-color:#3364FF"/>
		<stop  offset="0.5813" style="stop-color:#3364FF"/>
		<stop  offset="0.7201" style="stop-color:#2A81FF"/>
		<stop  offset="0.8774" style="stop-color:#219CFE"/>
		<stop  offset="0.97" style="stop-color:#1EA6FE"/>
	</linearGradient>
	<path class="st11" d="M138.29,20.5c0.6-1.23,1.24-2.46,2.08-3.55c-0.2,0.26-0.41,0.53-0.61,0.79c0.44-0.56,0.93-1.07,1.48-1.5
		c-0.26,0.2-0.53,0.41-0.79,0.61c0.41-0.31,0.85-0.57,1.32-0.77c-0.31,0.13-0.62,0.26-0.94,0.4c0.47-0.19,0.96-0.33,1.47-0.4
		c-0.35,0.05-0.7,0.09-1.04,0.14c0.41-0.05,0.82-0.06,1.23-0.01c-0.35-0.05-0.7-0.09-1.04-0.14c0.37,0.05,0.73,0.14,1.08,0.29
		c-0.31-0.13-0.62-0.26-0.94-0.4c0.27,0.12,0.52,0.26,0.75,0.44c-0.26-0.2-0.53-0.41-0.79-0.61c0.26,0.21,0.5,0.44,0.71,0.7
		c-0.2-0.26-0.41-0.53-0.61-0.79c0.23,0.31,0.42,0.64,0.58,1c-0.13-0.31-0.26-0.62-0.4-0.94c0.23,0.55,0.37,1.14,0.45,1.73
		c-0.05-0.35-0.09-0.7-0.14-1.04c0.15,1.14,0.08,2.29-0.07,3.43c0.05-0.35,0.09-0.7,0.14-1.04c-0.24,1.71-0.71,3.37-1.37,4.96
		c0.13-0.31,0.26-0.62,0.4-0.94c-0.76,1.8-1.77,3.49-2.96,5.04c0.2-0.26,0.41-0.53,0.61-0.79c-1.3,1.67-2.82,3.15-4.49,4.45
		c0.26-0.2,0.53-0.41,0.79-0.61c-2.15,1.65-4.52,2.98-7.01,4.04c0.31-0.13,0.62-0.26,0.94-0.4c-2.94,1.23-6.04,2.12-9.2,2.56
		c0.35-0.05,0.7-0.09,1.04-0.14c-2.21,0.3-4.46,0.35-6.68,0.06c0.35,0.05,0.7,0.09,1.04,0.14c-1.17-0.16-2.33-0.42-3.46-0.78
		c-0.94-0.3-2.18-0.1-3.02,0.4c-0.81,0.48-1.59,1.41-1.8,2.34c-0.23,1-0.18,2.13,0.4,3.02c0.57,0.88,1.34,1.48,2.34,1.8l0,0
		c1.51,0.49,3.04,0.74,4.61,0.93c1.25,0.16,2.51,0.21,3.76,0.17c2.84-0.1,5.69-0.58,8.42-1.34c2.53-0.7,5.01-1.66,7.37-2.82
		c2.35-1.15,4.51-2.6,6.54-4.26c3.96-3.22,7-7.63,8.55-12.5c0.34-1.06,0.59-2.15,0.74-3.26c0.19-1.36,0.38-2.74,0.25-4.12
		c-0.15-1.64-0.47-3.22-1.33-4.65c-1.01-1.68-2.54-2.87-4.4-3.47c-0.78-0.25-1.64-0.36-2.45-0.34c-0.57,0.01-1.14,0.11-1.7,0.19
		c-0.27,0.04-0.53,0.1-0.79,0.18c-1.63,0.49-3.08,1.38-4.3,2.57c-0.62,0.6-1.14,1.3-1.65,2c-0.34,0.46-0.64,0.94-0.92,1.43
		c-0.59,1.04-1.1,2.12-1.61,3.2"/>
</g>
<g>
	<linearGradient id="SVGID_11_" gradientUnits="userSpaceOnUse" x1="152.2242" y1="19.3116" x2="121.8279" y2="9.6307">
		<stop  offset="0.4624" style="stop-color:#1EA6FE"/>
		<stop  offset="0.8179" style="stop-color:#91F2D3"/>
		<stop  offset="0.8701" style="stop-color:#A2FECD"/>
	</linearGradient>
	<path class="st12" d="M149.01,24.17c0.34-1.06,0.59-2.15,0.74-3.26c0.19-1.36,0.38-2.74,0.25-4.12c-0.15-1.64-0.47-3.22-1.33-4.65
		c-1.01-1.68-2.54-2.87-4.4-3.47c-0.78-0.25-1.64-0.36-2.45-0.34c-0.57,0.01-1.14,0.11-1.7,0.19c-0.27,0.04-0.53,0.1-0.79,0.18
		c-1.63,0.49-3.08,1.38-4.3,2.57c-0.62,0.6-1.14,1.3-1.65,2c-0.34,0.46-0.64,0.94-0.92,1.43c-0.59,1.04-1.1,2.12-1.61,3.2l7.42,2.6
		c0.6-1.23,1.24-2.46,2.08-3.55c-0.2,0.26-0.41,0.53-0.61,0.79c0.44-0.56,0.93-1.07,1.48-1.5c-0.26,0.2-0.53,0.41-0.79,0.61
		c0.41-0.31,0.85-0.57,1.32-0.77c-0.31,0.13-0.62,0.26-0.94,0.4c0.47-0.19,0.96-0.33,1.47-0.4c-0.35,0.05-0.7,0.09-1.04,0.14
		c0.41-0.05,0.82-0.06,1.23-0.01c-0.35-0.05-0.7-0.09-1.04-0.14c0.37,0.05,0.73,0.14,1.08,0.29c-0.31-0.13-0.62-0.26-0.94-0.4
		c0.27,0.12,0.52,0.26,0.75,0.44c-0.26-0.2-0.53-0.41-0.79-0.61c0.26,0.21,0.5,0.44,0.71,0.7c-0.2-0.26-0.41-0.53-0.61-0.79
		c0.23,0.31,0.42,0.64,0.58,1c-0.13-0.31-0.26-0.62-0.4-0.94c0.23,0.55,0.37,1.14,0.45,1.73c-0.05-0.35-0.09-0.7-0.14-1.04
		c0.15,1.14,0.08,2.29-0.07,3.43c0.05-0.35,0.09-0.7,0.14-1.04c-0.24,1.71-0.71,3.37-1.37,4.96c0.13-0.31,0.26-0.62,0.4-0.94"/>
</g>
<g>
	<linearGradient id="SVGID_12_" gradientUnits="userSpaceOnUse" x1="155.2052" y1="50.0588" x2="106.3483" y2="42.5221">
		<stop  offset="0.0489" style="stop-color:#3364FF"/>
		<stop  offset="0.465" style="stop-color:#1EA6FE"/>
		<stop  offset="0.6264" style="stop-color:#65D6E4"/>
		<stop  offset="0.7568" style="stop-color:#A2FECD"/>
	</linearGradient>
	<path class="st13" d="M131.01,17.62c-2.25,4.81-4.09,9.82-5.41,14.97c-1.31,5.15-2.13,10.45-2.47,15.76
		c-0.16,2.5-0.2,5.01-0.12,7.51c0.09,2.79,0.32,5.64,1.07,8.33c0.77,2.75,2.09,5.29,4.02,7.4c0.89,0.98,1.96,1.83,3.08,2.52
		c0.7,0.43,1.45,0.74,2.21,1.05c0.47,0.19,0.95,0.35,1.45,0.45c0.85,0.18,1.74,0.3,2.61,0.31c0.89,0.01,1.79-0.12,2.67-0.27
		c1.44-0.25,2.85-0.83,4.15-1.49c1.32-0.67,2.52-1.59,3.65-2.54c0.92-0.78,1.76-1.65,2.56-2.56c0.78-0.88,1.52-1.8,2.26-2.72
		c0.38-0.36,0.65-0.78,0.81-1.26c0.25-0.47,0.36-0.97,0.34-1.51c0-0.96-0.43-2.11-1.15-2.77c-0.75-0.69-1.73-1.2-2.77-1.15
		c-0.97,0.04-2.14,0.35-2.77,1.15c-1.67,2.07-3.35,4.16-5.46,5.79c0.26-0.2,0.53-0.41,0.79-0.61c-0.94,0.72-1.95,1.33-3.03,1.79
		c0.31-0.13,0.62-0.26,0.94-0.4c-0.86,0.36-1.76,0.62-2.68,0.76c0.35-0.05,0.7-0.09,1.04-0.14c-0.79,0.11-1.58,0.11-2.37,0.01
		c0.35,0.05,0.7,0.09,1.04,0.14c-0.7-0.1-1.37-0.29-2.02-0.56c0.31,0.13,0.62,0.26,0.94,0.4c-0.75-0.32-1.45-0.74-2.1-1.23
		c0.26,0.2,0.53,0.41,0.79,0.61c-0.77-0.6-1.45-1.29-2.05-2.06c0.2,0.26,0.41,0.53,0.61,0.79c-0.69-0.9-1.25-1.88-1.69-2.92
		c0.13,0.31,0.26,0.62,0.4,0.94c-0.68-1.64-1.08-3.37-1.32-5.13c0.05,0.35,0.09,0.7,0.14,1.04c-0.29-2.23-0.35-4.49-0.35-6.73
		c0-2.24,0.1-4.47,0.3-6.7c0.11-1.27,0.25-2.53,0.42-3.79c-0.05,0.35-0.09,0.7-0.14,1.04c0.74-5.46,2.03-10.84,3.87-16.04
		c0.52-1.48,1.09-2.95,1.7-4.4c-0.13,0.31-0.26,0.62-0.4,0.94c0.58-1.38,1.21-2.75,1.87-4.1"/>
</g>
<g>
	<linearGradient id="SVGID_13_" gradientUnits="userSpaceOnUse" x1="167.4289" y1="61.3474" x2="138.9637" y2="58.2975">
		<stop  offset="0.16" style="stop-color:#3364FF"/>
		<stop  offset="0.4479" style="stop-color:#1EA6FE"/>
		<stop  offset="0.5082" style="stop-color:#27ACFB"/>
		<stop  offset="0.608" style="stop-color:#40BDF1"/>
		<stop  offset="0.7349" style="stop-color:#69D8E2"/>
		<stop  offset="0.8826" style="stop-color:#A2FECD"/>
		<stop  offset="0.8835" style="stop-color:#A2FECD"/>
	</linearGradient>
	<path class="st14" d="M148.98,49.47c-0.38,4.3-0.55,8.61-0.51,12.92c0.01,0.98,0.01,1.96,0.07,2.93c0.05,0.74,0.15,1.48,0.27,2.21
		c0.06,0.4,0.15,0.8,0.28,1.19c0.16,0.48,0.37,0.95,0.58,1.42c0.08,0.19,0.18,0.37,0.28,0.54c0.26,0.43,0.59,0.82,0.91,1.21
		c0.13,0.16,0.27,0.31,0.42,0.45c0.5,0.45,1.06,0.91,1.68,1.2c0.61,0.28,1.26,0.59,1.94,0.7c0.75,0.13,1.52,0.25,2.28,0.19
		c0.75-0.06,1.51-0.15,2.23-0.36c0.74-0.21,1.46-0.52,2.15-0.86c0.41-0.2,0.79-0.44,1.16-0.7c0.46-0.25,0.82-0.58,1.1-1.01
		c0.35-0.38,0.58-0.82,0.7-1.33c0.16-0.52,0.19-1.04,0.07-1.56c-0.02-0.52-0.18-1.01-0.47-1.46c-0.54-0.84-1.34-1.58-2.34-1.8
		c-0.35-0.05-0.7-0.09-1.04-0.14c-0.71,0-1.37,0.18-1.98,0.54c-0.47,0.35-0.99,0.64-1.53,0.87c0.31-0.13,0.62-0.26,0.94-0.4
		c-0.55,0.23-1.11,0.39-1.7,0.47c0.35-0.05,0.7-0.09,1.04-0.14c-0.46,0.06-0.92,0.07-1.38,0.01c0.35,0.05,0.7,0.09,1.04,0.14
		c-0.38-0.05-0.75-0.15-1.11-0.3c0.31,0.13,0.62,0.26,0.94,0.4c-0.28-0.12-0.53-0.27-0.77-0.45c0.26,0.2,0.53,0.41,0.79,0.61
		c-0.25-0.2-0.47-0.42-0.67-0.67c0.2,0.26,0.41,0.53,0.61,0.79c-0.23-0.31-0.42-0.64-0.57-1c0.13,0.31,0.26,0.62,0.4,0.94
		c-0.24-0.58-0.38-1.2-0.46-1.82c0.05,0.35,0.09,0.7,0.14,1.04c-0.12-0.94-0.13-1.89-0.15-2.84c-0.02-1.12-0.02-2.25-0.02-3.37
		c0.02-2.25,0.09-4.5,0.23-6.74c0.08-1.28,0.17-2.55,0.28-3.82c0.02-0.54-0.09-1.04-0.34-1.51c-0.16-0.49-0.43-0.91-0.81-1.26
		c-0.36-0.38-0.78-0.65-1.26-0.81c-0.47-0.25-0.97-0.36-1.51-0.34c-1.01,0.05-2.07,0.38-2.77,1.15c-0.2,0.26-0.41,0.53-0.61,0.79
		C149.16,48.1,148.99,48.76,148.98,49.47L148.98,49.47z"/>
</g>
<rect x="67.13" y="38.32" class="st15" width="22.73" height="4.78"/>
<rect x="67.13" y="46.74" class="st15" width="22.73" height="4.78"/>
<path class="st15" d="M61.89,74.45c-9.45,3.22-20,2.66-31.41,2.11V71.3c10.75,0.56,21.24,1.06,31.41-2.11V74.45z"/>
<rect x="52.33" y="48.19" class="st15" width="6.76" height="6.03"/>
<rect x="27.61" y="66.32" transform="matrix(-1.836970e-16 1 -1 -1.836970e-16 103.0393 35.84)" class="st15" width="11.98" height="6.24"/>
<path class="st15" d="M100.88,74.45c-9.45,3.22-20,2.66-31.41,2.11V71.3c10.75,0.56,21.24,1.06,31.41-2.11V74.45z"/>
<rect x="66.59" y="66.32" transform="matrix(-1.836970e-16 1 -1 -1.836970e-16 142.0258 -3.1464)" class="st15" width="11.98" height="6.24"/>
<path class="st15" d="M89.76,58.18c-6.57,2.24-13.97,1.76-22.63,1.4v-4.21c7.15,0.31,14.55,1.04,22.63-1.4V58.18z"/>
<rect x="45.66" y="48.04" transform="matrix(-1.836970e-16 1 -1 -1.836970e-16 109.4154 -7.6341)" class="st15" width="25.73" height="5.7"/>
<rect x="85.17" y="48.04" transform="matrix(-1.836970e-16 1 -1 -1.836970e-16 148.9217 -47.1404)" class="st15" width="25.73" height="5.7"/>
<rect x="82.45" y="43.07" transform="matrix(-1.836970e-16 1 -1 -1.836970e-16 132.9275 -41.0943)" class="st15" width="9.13" height="5.7"/>
<rect x="65.4" y="50.45" transform="matrix(-1.836970e-16 1 -1 -1.836970e-16 123.2588 -16.6627)" class="st15" width="9.13" height="5.7"/>
<g>
	<path class="st15" d="M29.94,59.93l-2.88-4.97c5.18-3.01,7.37-6.09,8.29-8.15c0.8-1.78,0.76-3.02,0.76-3.03l-0.02-0.16v-4.69h5.74
		v4.41c0.05,0.75,0.05,2.94-1.24,5.82C38.74,53.28,35.15,56.9,29.94,59.93z"/>
</g>
<g>
	<path class="st15" d="M47.87,59.98c-5.22-3.03-8.8-6.65-10.64-10.76c-1.29-2.88-1.29-5.08-1.24-5.83L36,38l5.74,0.01l-0.01,5.73
		l-0.01,0.07c-0.01,0.25,0,1.56,0.93,3.42c1.39,2.81,4.2,5.5,8.11,7.77L47.87,59.98z"/>
</g>
</svg>
